<mxfile host="app.diagrams.net" modified="2023-09-11T03:16:29.046Z" agent="Mozilla/5.0 (Windows NT 10.0; Win64; x64) AppleWebKit/537.36 (KHTML, like Gecko) Chrome/116.0.0.0 Safari/537.36" etag="lrfCvhSZf30cp_3sXH3s" version="21.7.2" type="github">
  <diagram name="Page-1" id="eWwFJKEQ0JAv8-VnbL4S">
    <mxGraphModel dx="1050" dy="542" grid="1" gridSize="10" guides="1" tooltips="1" connect="1" arrows="1" fold="1" page="1" pageScale="1" pageWidth="827" pageHeight="1169" math="0" shadow="0">
      <root>
        <mxCell id="0" />
        <mxCell id="1" parent="0" />
        <mxCell id="y259yP9DLTqG-EA7O7o_-1" value="&lt;font style=&quot;font-size: 20px;&quot;&gt;App&lt;/font&gt;" style="rounded=0;whiteSpace=wrap;html=1;" vertex="1" parent="1">
          <mxGeometry x="370" y="90" width="120" height="60" as="geometry" />
        </mxCell>
        <mxCell id="y259yP9DLTqG-EA7O7o_-2" value="&lt;font style=&quot;font-size: 14px;&quot;&gt;Display&lt;/font&gt;" style="rounded=1;whiteSpace=wrap;html=1;" vertex="1" parent="1">
          <mxGeometry x="180" y="200" width="120" height="60" as="geometry" />
        </mxCell>
        <mxCell id="y259yP9DLTqG-EA7O7o_-3" value="&lt;font style=&quot;font-size: 14px;&quot;&gt;Body&lt;/font&gt;" style="rounded=1;whiteSpace=wrap;html=1;" vertex="1" parent="1">
          <mxGeometry x="580" y="200" width="120" height="60" as="geometry" />
        </mxCell>
        <mxCell id="y259yP9DLTqG-EA7O7o_-4" value="" style="endArrow=classic;html=1;rounded=0;entryX=0.5;entryY=0;entryDx=0;entryDy=0;exitX=0;exitY=0.5;exitDx=0;exitDy=0;" edge="1" parent="1" source="y259yP9DLTqG-EA7O7o_-1" target="y259yP9DLTqG-EA7O7o_-2">
          <mxGeometry width="50" height="50" relative="1" as="geometry">
            <mxPoint x="350" y="180" as="sourcePoint" />
            <mxPoint x="440" y="250" as="targetPoint" />
            <Array as="points">
              <mxPoint x="240" y="120" />
            </Array>
          </mxGeometry>
        </mxCell>
        <mxCell id="y259yP9DLTqG-EA7O7o_-5" value="" style="endArrow=classic;html=1;rounded=0;exitX=1;exitY=0.5;exitDx=0;exitDy=0;entryX=0.5;entryY=0;entryDx=0;entryDy=0;" edge="1" parent="1" source="y259yP9DLTqG-EA7O7o_-1" target="y259yP9DLTqG-EA7O7o_-3">
          <mxGeometry width="50" height="50" relative="1" as="geometry">
            <mxPoint x="560" y="160" as="sourcePoint" />
            <mxPoint x="640" y="190" as="targetPoint" />
            <Array as="points">
              <mxPoint x="640" y="120" />
            </Array>
          </mxGeometry>
        </mxCell>
        <mxCell id="y259yP9DLTqG-EA7O7o_-6" value="&lt;font style=&quot;font-size: 17px;&quot;&gt;Buttons&lt;/font&gt;" style="rounded=0;whiteSpace=wrap;html=1;" vertex="1" parent="1">
          <mxGeometry x="590" y="300" width="100" height="60" as="geometry" />
        </mxCell>
        <mxCell id="y259yP9DLTqG-EA7O7o_-7" value="" style="endArrow=classic;html=1;rounded=0;exitX=0.57;exitY=0.993;exitDx=0;exitDy=0;exitPerimeter=0;entryX=0.6;entryY=0.033;entryDx=0;entryDy=0;entryPerimeter=0;" edge="1" parent="1" source="y259yP9DLTqG-EA7O7o_-3" target="y259yP9DLTqG-EA7O7o_-6">
          <mxGeometry width="50" height="50" relative="1" as="geometry">
            <mxPoint x="330" y="400" as="sourcePoint" />
            <mxPoint x="380" y="350" as="targetPoint" />
          </mxGeometry>
        </mxCell>
      </root>
    </mxGraphModel>
  </diagram>
</mxfile>
